<svg xmlns="http://www.w3.org/2000/svg" width="87" height="19" viewBox="0 0 87 19">
    <path fill="#15171A" fill-rule="evenodd" d="M10.458 5.743h4.357C14.815 2.24 11.935 0 7.768 0 3.6 0 .568 2.023.568 5.202c0 3.323 2.16 4.479 5.608 5.454l.379.108c2.993.903 3.903 1.698 3.903 2.818 0 .975-.985 1.95-2.804 1.95-2.198 0-3.22-.975-3.297-2.781H0C0 17.121 3.789 19 7.654 19c4.206 0 7.161-1.734 7.161-5.454 0-2.962-2.16-4.516-5.797-5.744l-.53-.216c-2.085-.723-3.562-1.192-3.562-2.348 0-1.048.947-1.734 2.728-1.734 1.819 0 2.728.867 2.804 2.24zm14.996 6.466h-3.107v6.538H17.95V.253h7.503c4.547 0 7.123 2.6 7.123 6.14 0 3.504-2.576 5.816-7.123 5.816zm-3.107-8.488v5.057h3.107c1.97-.037 2.728-1.156 2.728-2.565 0-1.337-.758-2.529-2.728-2.492h-3.107zm14.579 15.026h-4.812L38.594.253h4.698l6.479 18.494h-4.812l-1.023-3.468h-5.987l-1.023 3.468zM40.829 5.49l-1.895 6.43h4.017l-1.895-6.43h-.227zm21.93 13.257l-3.391-6.79h-2.634v6.79H52.34V.253h7.313c4.395 0 7.123 2.42 7.123 5.49 0 2.782-1.307 4.227-3.315 5.13l3.997 7.694v.18H62.76zM56.734 3.721v4.804h2.918c1.856 0 2.766-.867 2.766-2.384 0-1.554-.948-2.42-2.766-2.42h-2.918zM74.155.253h-4.812l6.48 18.494h4.698L87 .253h-4.812L78.285 13.51h-.227L74.155.253z"/>
</svg>
